<mxfile host="Electron" agent="Mozilla/5.0 (Windows NT 10.0; Win64; x64) AppleWebKit/537.36 (KHTML, like Gecko) draw.io/24.7.17 Chrome/128.0.6613.36 Electron/32.0.1 Safari/537.36" version="24.7.17">
  <diagram id="C5RBs43oDa-KdzZeNtuy" name="Page-1">
    <mxGraphModel dx="1008" dy="592" grid="1" gridSize="10" guides="1" tooltips="1" connect="1" arrows="1" fold="1" page="1" pageScale="1" pageWidth="827" pageHeight="1169" math="0" shadow="0">
      <root>
        <mxCell id="WIyWlLk6GJQsqaUBKTNV-0" />
        <mxCell id="WIyWlLk6GJQsqaUBKTNV-1" parent="WIyWlLk6GJQsqaUBKTNV-0" />
        <mxCell id="KN6Ghhoka7FOcm5Q3Up5-8" value="" style="edgeStyle=orthogonalEdgeStyle;rounded=0;orthogonalLoop=1;jettySize=auto;html=1;" edge="1" parent="WIyWlLk6GJQsqaUBKTNV-1" source="KN6Ghhoka7FOcm5Q3Up5-0" target="KN6Ghhoka7FOcm5Q3Up5-7">
          <mxGeometry relative="1" as="geometry" />
        </mxCell>
        <mxCell id="KN6Ghhoka7FOcm5Q3Up5-0" value="Division (double num1, double num2)" style="ellipse;whiteSpace=wrap;html=1;" vertex="1" parent="WIyWlLk6GJQsqaUBKTNV-1">
          <mxGeometry x="640" y="60" width="120" height="80" as="geometry" />
        </mxCell>
        <mxCell id="KN6Ghhoka7FOcm5Q3Up5-4" value="" style="edgeStyle=orthogonalEdgeStyle;rounded=0;orthogonalLoop=1;jettySize=auto;html=1;" edge="1" parent="WIyWlLk6GJQsqaUBKTNV-1" source="KN6Ghhoka7FOcm5Q3Up5-1" target="KN6Ghhoka7FOcm5Q3Up5-3">
          <mxGeometry relative="1" as="geometry" />
        </mxCell>
        <mxCell id="KN6Ghhoka7FOcm5Q3Up5-1" value="Division (float num1, float num2)" style="ellipse;whiteSpace=wrap;html=1;" vertex="1" parent="WIyWlLk6GJQsqaUBKTNV-1">
          <mxGeometry x="30" y="60" width="120" height="80" as="geometry" />
        </mxCell>
        <mxCell id="KN6Ghhoka7FOcm5Q3Up5-12" value="" style="edgeStyle=orthogonalEdgeStyle;rounded=0;orthogonalLoop=1;jettySize=auto;html=1;" edge="1" parent="WIyWlLk6GJQsqaUBKTNV-1" source="KN6Ghhoka7FOcm5Q3Up5-2" target="KN6Ghhoka7FOcm5Q3Up5-11">
          <mxGeometry relative="1" as="geometry" />
        </mxCell>
        <mxCell id="KN6Ghhoka7FOcm5Q3Up5-2" value="Start" style="ellipse;whiteSpace=wrap;html=1;" vertex="1" parent="WIyWlLk6GJQsqaUBKTNV-1">
          <mxGeometry x="340" y="80" width="120" height="60" as="geometry" />
        </mxCell>
        <mxCell id="KN6Ghhoka7FOcm5Q3Up5-6" value="" style="edgeStyle=orthogonalEdgeStyle;rounded=0;orthogonalLoop=1;jettySize=auto;html=1;" edge="1" parent="WIyWlLk6GJQsqaUBKTNV-1" source="KN6Ghhoka7FOcm5Q3Up5-3" target="KN6Ghhoka7FOcm5Q3Up5-5">
          <mxGeometry relative="1" as="geometry" />
        </mxCell>
        <mxCell id="KN6Ghhoka7FOcm5Q3Up5-3" value="return num1 / num2" style="whiteSpace=wrap;html=1;" vertex="1" parent="WIyWlLk6GJQsqaUBKTNV-1">
          <mxGeometry x="30" y="160" width="120" height="60" as="geometry" />
        </mxCell>
        <mxCell id="KN6Ghhoka7FOcm5Q3Up5-5" value="Finish" style="ellipse;whiteSpace=wrap;html=1;" vertex="1" parent="WIyWlLk6GJQsqaUBKTNV-1">
          <mxGeometry x="50" y="250" width="80" height="50" as="geometry" />
        </mxCell>
        <mxCell id="KN6Ghhoka7FOcm5Q3Up5-10" value="" style="edgeStyle=orthogonalEdgeStyle;rounded=0;orthogonalLoop=1;jettySize=auto;html=1;" edge="1" parent="WIyWlLk6GJQsqaUBKTNV-1" source="KN6Ghhoka7FOcm5Q3Up5-7" target="KN6Ghhoka7FOcm5Q3Up5-9">
          <mxGeometry relative="1" as="geometry" />
        </mxCell>
        <mxCell id="KN6Ghhoka7FOcm5Q3Up5-7" value="return num1 / num2" style="whiteSpace=wrap;html=1;" vertex="1" parent="WIyWlLk6GJQsqaUBKTNV-1">
          <mxGeometry x="640" y="160" width="120" height="60" as="geometry" />
        </mxCell>
        <mxCell id="KN6Ghhoka7FOcm5Q3Up5-9" value="Finish" style="ellipse;whiteSpace=wrap;html=1;" vertex="1" parent="WIyWlLk6GJQsqaUBKTNV-1">
          <mxGeometry x="660" y="250" width="80" height="50" as="geometry" />
        </mxCell>
        <mxCell id="KN6Ghhoka7FOcm5Q3Up5-14" value="" style="edgeStyle=orthogonalEdgeStyle;rounded=0;orthogonalLoop=1;jettySize=auto;html=1;" edge="1" parent="WIyWlLk6GJQsqaUBKTNV-1" source="KN6Ghhoka7FOcm5Q3Up5-11" target="KN6Ghhoka7FOcm5Q3Up5-13">
          <mxGeometry relative="1" as="geometry" />
        </mxCell>
        <mxCell id="KN6Ghhoka7FOcm5Q3Up5-11" value="init variables for float (a, b) and double (x, y) and results" style="whiteSpace=wrap;html=1;" vertex="1" parent="WIyWlLk6GJQsqaUBKTNV-1">
          <mxGeometry x="340" y="160" width="120" height="60" as="geometry" />
        </mxCell>
        <mxCell id="KN6Ghhoka7FOcm5Q3Up5-16" value="" style="edgeStyle=orthogonalEdgeStyle;rounded=0;orthogonalLoop=1;jettySize=auto;html=1;" edge="1" parent="WIyWlLk6GJQsqaUBKTNV-1" source="KN6Ghhoka7FOcm5Q3Up5-13" target="KN6Ghhoka7FOcm5Q3Up5-15">
          <mxGeometry relative="1" as="geometry" />
        </mxCell>
        <mxCell id="KN6Ghhoka7FOcm5Q3Up5-13" value="resultF = Division(a, b)&lt;div&gt;resultD = Division(x, y)&lt;/div&gt;" style="whiteSpace=wrap;html=1;" vertex="1" parent="WIyWlLk6GJQsqaUBKTNV-1">
          <mxGeometry x="330" y="245" width="140" height="60" as="geometry" />
        </mxCell>
        <mxCell id="KN6Ghhoka7FOcm5Q3Up5-18" value="" style="edgeStyle=orthogonalEdgeStyle;rounded=0;orthogonalLoop=1;jettySize=auto;html=1;" edge="1" parent="WIyWlLk6GJQsqaUBKTNV-1" source="KN6Ghhoka7FOcm5Q3Up5-15" target="KN6Ghhoka7FOcm5Q3Up5-17">
          <mxGeometry relative="1" as="geometry" />
        </mxCell>
        <mxCell id="KN6Ghhoka7FOcm5Q3Up5-15" value="output the results" style="shape=parallelogram;perimeter=parallelogramPerimeter;whiteSpace=wrap;html=1;fixedSize=1;" vertex="1" parent="WIyWlLk6GJQsqaUBKTNV-1">
          <mxGeometry x="340" y="330" width="120" height="60" as="geometry" />
        </mxCell>
        <mxCell id="KN6Ghhoka7FOcm5Q3Up5-17" value="Finish" style="ellipse;whiteSpace=wrap;html=1;" vertex="1" parent="WIyWlLk6GJQsqaUBKTNV-1">
          <mxGeometry x="360" y="420" width="80" height="50" as="geometry" />
        </mxCell>
      </root>
    </mxGraphModel>
  </diagram>
</mxfile>
